# xmcd
# Copyright (C) 1995-1998 Ti Kan
#
# Track frame offsets:
#       150
#       13579
#       19586
#       25627
#       35247
#       43607
#       49475
#       62222
#       75449
#       84438
#       91349
#       99245
#       111222
#       131232
#
# Disc length: 1895 seconds
#
# Revision: 0
# Processed by: cddbd v1.5.2PL0 Copyright (c) Steve Scherf et al.
# Submitted via: CD-Import v1.0
#
DISCID=ac07650e
DTITLE=Dead Kennedys - Fresh Fruit For Rotting Vegetables
DYEAR=1980
DGENRE=
TTITLE0=Kill The Poor
TTITLE1=Forward To Death
TTITLE2=When Ya Get Drafted
TTITLE3=Let's Lynch The Landlord
TTITLE4=Drug Me
TTITLE5=Your Emotions
TTITLE6=Chemical Warfare
TTITLE7=California Uber Alles
TTITLE8=I Kill Children
TTITLE9=Stealing People's Mail
TTITLE10=Funland At The Beach
TTITLE11=Ill In The Head
TTITLE12=Holiday In Cambodia
TTITLE13=Viva Las Vegas
EXTD=
EXTT0=
EXTT1=
EXTT2=
EXTT3=
EXTT4=
EXTT5=
EXTT6=
EXTT7=
EXTT8=
EXTT9=
EXTT10=
EXTT11=
EXTT12=
EXTT13=
PLAYORDER=
